<svg xmlns="http://www.w3.org/2000/svg" width="35" height="36" viewBox="0 0 35 36"><g id="instagram" transform="translate(-0.498 0.107)"><path id="&#x41A;&#x43E;&#x43D;&#x442;&#x443;&#x440;_6513" data-name="&#x41A;&#x43E;&#x43D;&#x442;&#x443;&#x440; 6513" d="M25.5-.107H9.5c-5.29,0-9,4.71-9,10v16c0,5.29,3.71,10,9,10h16a10.314,10.314,0,0,0,10-10v-16A10.314,10.314,0,0,0,25.5-.107Zm8,26c0,4.144-3.856,7-8,7H9.5a6.673,6.673,0,0,1-7-7v-16c0-4.144,2.856-8,7-8h16a8.379,8.379,0,0,1,8,8Zm0,0" fill="#fcfcfc"></path><path id="&#x41A;&#x43E;&#x43D;&#x442;&#x443;&#x440;_6514" data-name="&#x41A;&#x43E;&#x43D;&#x442;&#x443;&#x440; 6514" d="M125.473,115.867c-5.343,0-9,4.657-9,10s3.657,10,9,10a10,10,0,0,0,0-20Zm0,17a6.616,6.616,0,0,1-7-7c0-4.2,2.8-8,7-8a8.3,8.3,0,0,1,8,8C133.473,130.065,129.67,132.867,125.473,132.867Zm0,0" transform="translate(-107.975 -107.974)" fill="#fcfcfc"></path><path id="&#x41A;&#x43E;&#x43D;&#x442;&#x443;&#x440;_6515" data-name="&#x41A;&#x43E;&#x43D;&#x442;&#x443;&#x440; 6515" d="M360.7,66.59a3.106,3.106,0,0,0-3,3c0,1.579,1.421,2,3,2s3-.421,3-2A3.105,3.105,0,0,0,360.7,66.59Zm0,3c-.433,0-1,.433-1,0a1,1,0,0,1,2,0C361.7,70.023,361.13,69.59,360.7,69.59Zm0,0" transform="translate(-333.199 -61.697)" fill="#fcfcfc"></path></g></svg>