<svg xmlns="http://www.w3.org/2000/svg" id="instagram" width="16.608" height="16.608" viewBox="0 0 16.608 16.608"><g id="&#x421;&#x433;&#x440;&#x443;&#x43F;&#x43F;&#x438;&#x440;&#x43E;&#x432;&#x430;&#x442;&#x44C;_2426" data-name="&#x421;&#x433;&#x440;&#x443;&#x43F;&#x43F;&#x438;&#x440;&#x43E;&#x432;&#x430;&#x442;&#x44C; 2426"><g id="&#x421;&#x433;&#x440;&#x443;&#x43F;&#x43F;&#x438;&#x440;&#x43E;&#x432;&#x430;&#x442;&#x44C;_2425" data-name="&#x421;&#x433;&#x440;&#x443;&#x43F;&#x43F;&#x438;&#x440;&#x43E;&#x432;&#x430;&#x442;&#x44C; 2425"><path id="&#x41A;&#x43E;&#x43D;&#x442;&#x443;&#x440;_3418" data-name="&#x41A;&#x43E;&#x43D;&#x442;&#x443;&#x440; 3418" d="M11.418,0H5.19A5.191,5.191,0,0,0,0,5.19v6.228a5.191,5.191,0,0,0,5.19,5.19h6.228a5.191,5.191,0,0,0,5.19-5.19V5.19A5.191,5.191,0,0,0,11.418,0Zm3.633,11.418a3.637,3.637,0,0,1-3.633,3.633H5.19a3.637,3.637,0,0,1-3.633-3.633V5.19A3.637,3.637,0,0,1,5.19,1.557h6.228A3.637,3.637,0,0,1,15.051,5.19Z" fill="currentColor"></path></g></g><g id="&#x421;&#x433;&#x440;&#x443;&#x43F;&#x43F;&#x438;&#x440;&#x43E;&#x432;&#x430;&#x442;&#x44C;_2428" data-name="&#x421;&#x433;&#x440;&#x443;&#x43F;&#x43F;&#x438;&#x440;&#x43E;&#x432;&#x430;&#x442;&#x44C; 2428" transform="translate(4.152 4.152)"><g id="&#x421;&#x433;&#x440;&#x443;&#x43F;&#x43F;&#x438;&#x440;&#x43E;&#x432;&#x430;&#x442;&#x44C;_2427" data-name="&#x421;&#x433;&#x440;&#x443;&#x43F;&#x43F;&#x438;&#x440;&#x43E;&#x432;&#x430;&#x442;&#x44C; 2427"><path id="&#x41A;&#x43E;&#x43D;&#x442;&#x443;&#x440;_3419" data-name="&#x41A;&#x43E;&#x43D;&#x442;&#x443;&#x440; 3419" d="M132.152,128a4.152,4.152,0,1,0,4.152,4.152A4.152,4.152,0,0,0,132.152,128Zm0,6.747a2.6,2.6,0,1,1,2.6-2.6A2.6,2.6,0,0,1,132.152,134.747Z" transform="translate(-128 -128)" fill="currentColor"></path></g></g><g id="&#x421;&#x433;&#x440;&#x443;&#x43F;&#x43F;&#x438;&#x440;&#x43E;&#x432;&#x430;&#x442;&#x44C;_2430" data-name="&#x421;&#x433;&#x440;&#x443;&#x43F;&#x43F;&#x438;&#x440;&#x43E;&#x432;&#x430;&#x442;&#x44C; 2430" transform="translate(12.214 3.287)"><g id="&#x421;&#x433;&#x440;&#x443;&#x43F;&#x43F;&#x438;&#x440;&#x43E;&#x432;&#x430;&#x442;&#x44C;_2429" data-name="&#x421;&#x433;&#x440;&#x443;&#x43F;&#x43F;&#x438;&#x440;&#x43E;&#x432;&#x430;&#x442;&#x44C; 2429"><circle id="&#x42D;&#x43B;&#x43B;&#x438;&#x43F;&#x441;_194" data-name="&#x42D;&#x43B;&#x43B;&#x438;&#x43F;&#x441; 194" cx="0.553" cy="0.553" r="0.553" fill="currentColor"></circle></g></g></svg>